<?xml version="1.0" encoding="UTF-8"?><svg xmlns="http://www.w3.org/2000/svg" viewBox="0 0 144.49 105.96"><defs><style>.cls-1{fill:none;stroke:#000;stroke-miterlimit:10;stroke-width:2px;}</style></defs><g id="Layer_3"><path class="cls-1" d="m46.04,72.71l-17.59-17.8-12.48-12.62c-4.37-4.42-6.58-10.18-6.66-15.96-.08-6.08,2.2-12.19,6.84-16.78,9.05-8.95,23.79-8.87,32.74.19l12.46,9.75,12.64-9.61c4.42-4.36,10.18-6.58,15.96-6.66,6.08-.08,12.19,2.2,16.78,6.85,8.95,9.05,8.87,23.78-.19,32.74l-12.61,12.48-17.8,17.59c-5.85,5.78-11.47,8.51-18.79,6.14"/></g><g id="Layer_2"><path class="cls-1" d="m47.22,92.8c-1-19.03,26.61-60.96,29.08-63.01.87-.72-27.1,47.76-8.24,39.49,17.43-7.65,29.8-23.59,25.62-41.53-3.2-13.72-5.6-14.69-11.81-9.49-9.26,7.76-26.28,10.13-32.51,19.32-7.68,11.33-4.53,30.23-3.32,35.13"/></g></svg>


